
        <svg xmlns="http://www.w3.org/2000/svg" xmlns:xlink="http://www.w3.org/1999/xlink" version="1.1" width="3147.157326062856" 
        height="2347.1593507025577" viewBox="0 0 3147.157326062856 2347.1593507025577">
			<rect fill="#032237" width="3147.157326062856" height="2347.1593507025577"/>
			<g transform="scale(7.357866303142815) translate(10, 10)">
				<defs id="SvgjsDefs45451"><linearGradient id="SvgjsLinearGradient45462"><stop id="SvgjsStop45463" stop-color="#905e26" offset="0"></stop><stop id="SvgjsStop45464" stop-color="#f5ec9b" offset="0.5"></stop><stop id="SvgjsStop45465" stop-color="#905e26" offset="1"></stop></linearGradient><linearGradient id="SvgjsLinearGradient45466"><stop id="SvgjsStop45467" stop-color="#905e26" offset="0"></stop><stop id="SvgjsStop45468" stop-color="#f5ec9b" offset="0.5"></stop><stop id="SvgjsStop45469" stop-color="#905e26" offset="1"></stop></linearGradient><linearGradient id="SvgjsLinearGradient45470"><stop id="SvgjsStop45471" stop-color="#905e26" offset="0"></stop><stop id="SvgjsStop45472" stop-color="#f5ec9b" offset="0.5"></stop><stop id="SvgjsStop45473" stop-color="#905e26" offset="1"></stop></linearGradient><linearGradient id="SvgjsLinearGradient45474"><stop id="SvgjsStop45475" stop-color="#905e26" offset="0"></stop><stop id="SvgjsStop45476" stop-color="#f5ec9b" offset="0.5"></stop><stop id="SvgjsStop45477" stop-color="#905e26" offset="1"></stop></linearGradient><linearGradient id="SvgjsLinearGradient45478"><stop id="SvgjsStop45479" stop-color="#905e26" offset="0"></stop><stop id="SvgjsStop45480" stop-color="#f5ec9b" offset="0.5"></stop><stop id="SvgjsStop45481" stop-color="#905e26" offset="1"></stop></linearGradient></defs><g id="SvgjsG45452" featureKey="rootContainer" transform="matrix(1,0,0,1,0,0)" fill="url(#SvgjsLinearGradient45462)"><path xmlns="http://www.w3.org/2000/svg" fill-rule="evenodd" d="M5,65 L204,0 L403, 65 L204, 10 z M5,219 L204,299 L403,214 L204, 289 z"></path></g><g id="SvgjsG45453" featureKey="sloganFeature-0" transform="matrix(1.2075652263480916,0,0,1.2075652263480916,97.17656109871866,184.7838046120828)" fill="url(#SvgjsLinearGradient45466)"><path d="M2.5134 17.9011 l2.1658 0 l0 -9.7727 l-2.7005 0 l0.53476 0.41444 l0 9.3583 z M6.5107 7.34 l0 11.35 c0 0.74866 -0.57487 1.3235 -1.3235 1.3235 l-3.1818 0 c-0.74866 0 -1.3235 -0.57487 -1.3235 -1.3235 l0 -11.35 c0 -0.70856 0.57487 -1.3235 1.3235 -1.3235 l3.1818 0 c0.74866 0 1.3235 0.61497 1.3235 1.3235 z M10.783797860962565 11.9251 l2.1524 0 l0 -3.8369 l-2.7005 0 l0.54813 0.41444 l0 3.4225 z M14.767697860962565 7.313000000000001 l0 5.4011 c0 0.70856 -0.57487 1.3235 -1.3235 1.3235 l-3.2086 0 l0.54813 0.41444 l0 5.5348 l-1.8449 0 l0 -13.596 l-0.33422 -0.41444 l4.8396 0 c0.74866 0 1.3235 0.58824 1.3235 1.3369 z M18.50597486631016 8.102 l-1.992 0 l0 -2.1257 l5.8289 0 l0 2.1257 l-2.5401 0 l0.54813 0.40107 l0 11.484 l-1.8449 0 l0 -11.885 z M26.5759064171123 19.973262 l-1.8449 0 l0 -13.583 l-0.33422 -0.41444 l2.1791 0 l0 13.997 z M28.963905561497324 6.016 l3.0882 0 l1.2433 4.7193 l1.2567 -4.7193 l2.754 0 l-0.013369 13.997 l-1.8316 0 l0 -10.267 l-2.1658 8.1283 l0 0.013369 l0 -0.013369 l0 0.013369 l0 -0.013369 l-2.1524 -8.1283 l0 10.267 l-1.8449 0 l0 -13.596 z M41.8599973262032 19.973262 l-1.8449 0 l0 -13.583 l-0.33422 -0.41444 l2.1791 0 l0 13.997 z M44.11430037433155 17.9144 l2.9947 -9.7861 l-2.9947 0 l0 -2.1123 l4.9198 0 l0 2.0989 l0 0.013369 l-2.9947 9.7727 l2.9947 0 l0 2.1123 l-4.9198 0 l0 -2.0989 z M53.387403743315495 19.973262 l-1.8449 0 l0 -13.583 l-0.33422 -0.41444 l2.1791 0 l0 13.997 z M55.76203288770053 6.003 l2.6203 0 l1.7112 7.6337 l0 -7.6203 l1.8316 0 l0 13.984 l-2.2861 0 l-1.6979 -7.5936 l0 7.607 l-1.8449 0 l0 -13.596 z M70.16882620320855 7.34 l0 3.5829 l-1.8316 0 l0 -2.7941 l-2.7005 0 l0.53476 0.41444 l0 9.3583 l2.1658 0 l0 -5.5348 l-0.54813 -0.41444 l2.3797 0 l0 8.0615 l-4.5053 0 c-0.74866 0 -1.3235 -0.57487 -1.3235 -1.3235 l0 -11.35 c0 -0.70856 0.57487 -1.3235 1.3235 -1.3235 l3.1818 0 c0.74866 0 1.3235 0.61497 1.3235 1.3235 z M83.2202588235294 7.34 l0 2.8877 l-1.8316 0 l0 -2.1123 l-2.7005 0 l0.53476 0.41444 l0 1.6979 l3.9973 4.9064 l0 2.1123 l0 1.4439 c0 0.70856 -0.57487 1.3235 -1.3235 1.3235 l-3.1818 0 c-0.74866 0 -1.3235 -0.61497 -1.3235 -1.3235 l0 -2.9813 l1.8316 0 l0 2.1925 l2.1658 0 l0 -2.1123 l-3.9973 -4.9064 l0 -3.5428 c0 -0.74866 0.57487 -1.3235 1.3235 -1.3235 l3.1818 0 c0.74866 0 1.3235 0.57487 1.3235 1.3235 z M87.34623208556148 17.9011 l2.1524 0 l0 -11.898 l1.8449 0 l0 12.674 c0 0.74866 -0.61497 1.3235 -1.3235 1.3235 l-3.1818 0.013369 c-0.74866 0 -1.3235 -0.58824 -1.3235 -1.3369 l0 -12.259 l-0.013369 0 l-0.33422 -0.41444 l2.1791 0 l0 11.898 z M99.46691657754009 7.34 l0 2.8877 l-1.8316 0 l0 -2.1123 l-2.7005 0 l0.53476 0.41444 l0 1.6979 l3.9973 4.9064 l0 2.1123 l0 1.4439 c0 0.70856 -0.57487 1.3235 -1.3235 1.3235 l-3.1818 0 c-0.74866 0 -1.3235 -0.61497 -1.3235 -1.3235 l0 -2.9813 l1.8316 0 l0 2.1925 l2.1658 0 l0 -2.1123 l-3.9973 -4.9064 l0 -3.5428 c0 -0.74866 0.57487 -1.3235 1.3235 -1.3235 l3.1818 0 c0.74866 0 1.3235 0.57487 1.3235 1.3235 z M103.41907647058822 8.102 l-1.992 0 l0 -2.1257 l5.8289 0 l0 2.1257 l-2.5401 0 l0.54813 0.40107 l0 11.484 l-1.8449 0 l0 -11.885 z M110.49970320855614 15.8021 l1.885 0 l-0.93583 -7.6738 z M108.13335320855613 20.026738 l1.6711 -13.596 l-0.33422 -0.40107 l3.5695 0 l1.7246 13.997 l-1.8583 0 l-0.25401 -2.1123 l-2.9545 -0.013369 l0.49465 0.3877 l-0.2139 1.738 l-1.8449 0 z M118.87704278074865 19.973262 l-1.8449 0 l0 -13.583 l-0.33422 -0.41444 l2.1791 0 l0 13.997 z M121.25167192513368 6.003 l2.6203 0 l1.7112 7.6337 l0 -7.6203 l1.8316 0 l0 13.984 l-2.2861 0 l-1.6979 -7.5936 l0 7.607 l-1.8449 0 l0 -13.596 z M132.03546524064168 15.8021 l1.885 0 l-0.93583 -7.6738 z M129.6691152406417 20.026738 l1.6711 -13.596 l-0.33422 -0.40107 l3.5695 0 l1.7246 13.997 l-1.8583 0 l-0.25401 -2.1123 l-2.9545 -0.013369 l0.49465 0.3877 l-0.2139 1.738 l-1.8449 0 z M139.87804278074864 14.090900000000001 l0.54813 0.40107 l0 3.4225 l2.1524 0 l0 -3.8235 l-2.7005 0 z M140.42614278074865 8.556 l0 3.4091 l2.1524 0 l0 -3.8235 l-2.7005 0 z M144.42344278074864 7.353 l0 4.3449 c0 0.74866 -0.61497 1.3235 -1.3235 1.3235 c0.70856 0 1.3235 0.61497 1.3235 1.3235 l0 4.3583 c0 0.74866 -0.61497 1.3235 -1.3235 1.3235 l-4.5187 0 l0 -13.596 l-0.33422 -0.40107 l4.8529 0 c0.70856 0 1.3235 0.61497 1.3235 1.3235 z M148.69656149732617 19.973262 l-1.8449 0 l0 -13.583 l-0.33422 -0.41444 l2.1791 0 l0 13.997 z M151.0444494652406 6.016 l2.1791 0 l0 11.885 l3.0749 0 l0 2.1123 l-4.9198 0 l0 -0.013369 l0 -2.0989 l0 -11.484 z M160.06354010695182 19.973262 l-1.8449 0 l0 -13.583 l-0.33422 -0.41444 l2.1791 0 l0 13.997 z M164.1627262032085 8.102 l-1.992 0 l0 -2.1257 l5.8289 0 l0 2.1257 l-2.5401 0 l0.54813 0.40107 l0 11.484 l-1.8449 0 l0 -11.885 z M169.74598775401063 6.003 l2.139 0 l1.484 5.9358 l1.4706 -5.9358 l1.8984 0 l-2.4332 9.7326 l-0.026738 0.12032 l0 4.1578 l-1.8316 0 l0 -4.1711 l-0.026738 -0.10695 l-2.3262 -9.3182 z"></path></g><g id="SvgjsG45454" featureKey="nameLeftFeature-0" transform="matrix(1.2075652263480916,0,0,1.2075652263480916,-1.646696133885847,104.56760922416557)" fill="url(#SvgjsLinearGradient45470)"><path d="M5.7219 11.952000000000002 l0 11.872 l4.3048 0 l0 -11.872 l3.6631 0 l0 27.995 l-3.6631 0 l0 -11.898 l-5.4011 0 l1.0963 0.82888 l0 11.07 l-3.6898 0 l0 -27.193 l-0.66845 -0.80214 l4.3583 0 z M17.914460962566846 12.004999999999999 l7.1658 0 l0 4.2246 l-7.246 0 l1.0963 0.80214 c-0.10695 4.7059 -0.10695 14.064 0 18.743 l6.1497 0 l0 4.2246 l-7.1658 0 c-1.4973 0 -2.6471 -1.1497 -2.6471 -2.6471 l0 -22.701 c0 -1.4973 1.1497 -2.6471 2.6471 -2.6471 z M32.48659090909091 12.780999999999999 l-0.66845 -0.82888 l10.508 0 l0 4.2246 l-7.246 0 l1.0963 0.82888 l0 6.8449 l4.3048 0 l0 4.2246 l-5.4011 0 l1.0963 0.82888 l0 11.043 l-3.6898 0 l0 -27.166 z M47.29944010695187 39.946524 l-3.6898 0 l0 -27.166 l-0.66845 -0.82888 l4.3583 0 l0 27.995 z M48.79679304812834 12.004999999999999 l5.2406 0 l3.4225 15.267 l0 -15.241 l3.6631 0 l0 27.968 l-4.5722 0 l-3.3957 -15.187 l0 15.214 l-3.6898 0 l0 -27.193 z M67.11227433155081 31.604300000000002 l3.7701 0 l-1.8717 -15.348 z M62.3796743315508 40.053476 l3.3422 -27.193 l-0.66845 -0.80214 l7.139 0 l3.4492 27.995 l-3.7166 0 l-0.50802 -4.2246 l-5.9091 -0.026738 l0.9893 0.7754 l-0.42781 3.4759 l-3.6898 0 z M76.28342406417111 12.004999999999999 l5.2406 0 l3.4225 15.267 l0 -15.241 l3.6631 0 l0 27.968 l-4.5722 0 l-3.3957 -15.187 l0 15.214 l-3.6898 0 l0 -27.193 z M92.86098502673796 12.004999999999999 l7.1658 0 l0 4.2246 l-7.246 0 l1.0963 0.80214 c-0.10695 4.7059 -0.10695 14.064 0 18.743 l6.1497 0 l0 4.2246 l-7.1658 0 c-1.4973 0 -2.6471 -1.1497 -2.6471 -2.6471 l0 -22.701 c0 -1.4973 1.1497 -2.6471 2.6471 -2.6471 z M105.05345080213904 39.946524 l-3.6898 0 l0 -27.166 l-0.66845 -0.82888 l4.3583 0 l0 27.995 z M111.09623155080214 31.604300000000002 l3.7701 0 l-1.8717 -15.348 z M106.36363155080214 40.053476 l3.3422 -27.193 l-0.66845 -0.80214 l7.139 0 l3.4492 27.995 l-3.7166 0 l-0.50802 -4.2246 l-5.9091 -0.026738 l0.9893 0.7754 l-0.42781 3.4759 l-3.6898 0 z M120.26737486631015 12.032 l4.3583 0 l0 23.77 l6.1497 0 l0 4.2246 l-9.8396 0 l0 -0.026738 l0 -4.1979 l0 -22.968 z"></path></g><g id="SvgjsG45455" featureKey="inlineSymbolFeature-0" transform="matrix(0.3192454081933821,0,0,0.3192454081933821,154.35516035022903,88.08478512073958)" fill="url(#SvgjsLinearGradient45474)"><g xmlns="http://www.w3.org/2000/svg"><defs><line id="a" x1="294" y1="7" x2="294" y2="293"></line></defs><clipPath><use xmlns:xlink="http://www.w3.org/1999/xlink" xlink:href="#a" style="" overflow="visible"></use></clipPath></g><g xmlns="http://www.w3.org/2000/svg"><path d="M151,293c-45.8,0.2-83.1-36.8-83.1-82.5c0-18.6,6.3-36.6,17.8-51.2l2.8-3.2c0.3-0.3,0.7-0.7,1-1l81.5-90.4   c12.8,11.5,13.9,31.2,2.4,43.9l-61.5,68.2c-8.2,9.3-12.7,21.3-12.7,33.7c0,28.5,23.5,51.8,52.2,51.3c28.2-0.5,50.7-23.9,50.7-52.1   v-21.4c0-17.2,13.9-31.1,31.2-31.1v52.3C233.2,255.2,196.6,292.8,151,293z"></path><path d="M215.4,139.6v0.2l-85.1,94.4c-12.8-11.5-13.9-31.2-2.4-43.9l61.5-68.2c8.2-9.3,12.7-21.4,12.7-33.7   c0-28.5-23.5-51.8-52.2-51.3C121.5,37.5,99,61,99,89.2v21.4c0,17.2-13.9,31.1-31.2,31.1V89.4C67.9,43.9,104.5,6.2,150,6   c45.8-0.2,83.1,36.8,83.1,82.5C233.2,107.1,226.9,125.1,215.4,139.6z"></path></g></g><g id="SvgjsG45456" featureKey="nameRightFeature-0" transform="matrix(1.2075675212543087,0,0,1.2075675212543087,240.1531383932966,104.56751615357196)" fill="url(#SvgjsLinearGradient45478)"><path d="M9.97328449197861 12.004999999999999 l7.1658 0 l0 4.2246 l-7.246 0 l1.0963 0.80214 c-0.10695 4.7059 -0.10695 14.064 0 18.743 l6.1497 0 l0 4.2246 l-7.1658 0 c-1.4973 0 -2.6471 -1.1497 -2.6471 -2.6471 l0 -22.701 c0 -1.4973 1.1497 -2.6471 2.6471 -2.6471 z M21.550764171122992 35.8021 l4.3316 0 l0 -19.545 l-5.4011 0 l1.0695 0.82888 l0 18.717 z M29.545064171122995 14.678999999999998 l0 22.701 c0 1.4973 -1.1497 2.6471 -2.6471 2.6471 l-6.3636 0 c-1.4973 0 -2.6471 -1.1497 -2.6471 -2.6471 l0 -22.701 c0 -1.4171 1.1497 -2.6471 2.6471 -2.6471 l6.3636 0 c1.4973 0 2.6471 1.2299 2.6471 2.6471 z M30.481285026737968 12.004999999999999 l5.2406 0 l3.4225 15.267 l0 -15.241 l3.6631 0 l0 27.968 l-4.5722 0 l-3.3957 -15.187 l0 15.214 l-3.6898 0 l0 -27.193 z M55.77501069518717 14.678999999999998 l0 5.7754 l-3.6631 0 l0 -4.2246 l-5.4011 0 l1.0695 0.82888 l0 3.3957 l7.9947 9.8128 l0 4.2246 l0 2.8877 c0 1.4171 -1.1497 2.6471 -2.6471 2.6471 l-6.3636 0 c-1.4973 0 -2.6471 -1.2299 -2.6471 -2.6471 l0 -5.9626 l3.6631 0 l0 4.385 l4.3316 0 l0 -4.2246 l-7.9947 -9.8128 l0 -7.0856 c0 -1.4973 1.1497 -2.6471 2.6471 -2.6471 l6.3636 0 c1.4973 0 2.6471 1.1497 2.6471 2.6471 z M60.775351871657755 35.8021 l4.3048 0 l0 -23.797 l3.6898 0 l0 25.348 c0 1.4973 -1.2299 2.6471 -2.6471 2.6471 l-6.3636 0.026738 c-1.4973 0 -2.6471 -1.1765 -2.6471 -2.6738 l0 -24.519 l-0.026738 0 l-0.66845 -0.82888 l4.3583 0 l0 23.797 z M70.18716096256685 12.032 l4.3583 0 l0 23.77 l6.1497 0 l0 4.2246 l-9.8396 0 l0 -0.026738 l0 -4.1979 l0 -22.968 z M81.39039197860964 16.203 l-3.984 0 l0 -4.2513 l11.658 0 l0 4.2513 l-5.0802 0 l1.0963 0.80214 l0 22.968 l-3.6898 0 l0 -23.77 z M92.29944010695189 31.604300000000002 l3.7701 0 l-1.8717 -15.348 z M87.56684010695189 40.053476 l3.3422 -27.193 l-0.66845 -0.80214 l7.139 0 l3.4492 27.995 l-3.7166 0 l-0.50802 -4.2246 l-5.9091 -0.026738 l0.9893 0.7754 l-0.42781 3.4759 l-3.6898 0 z M101.4705898395722 12.004999999999999 l5.2406 0 l3.4225 15.267 l0 -15.241 l3.6631 0 l0 27.968 l-4.5722 0 l-3.3957 -15.187 l0 15.214 l-3.6898 0 l0 -27.193 z M118.71659518716578 16.203 l-3.984 0 l0 -4.2513 l11.658 0 l0 4.2513 l-5.0802 0 l1.0963 0.80214 l0 22.968 l-3.6898 0 l0 -23.77 z M138.7696631016043 14.678999999999998 l0 5.7754 l-3.6631 0 l0 -4.2246 l-5.4011 0 l1.0695 0.82888 l0 3.3957 l7.9947 9.8128 l0 4.2246 l0 2.8877 c0 1.4171 -1.1497 2.6471 -2.6471 2.6471 l-6.3636 0 c-1.4973 0 -2.6471 -1.2299 -2.6471 -2.6471 l0 -5.9626 l3.6631 0 l0 4.385 l4.3316 0 l0 -4.2246 l-7.9947 -9.8128 l0 -7.0856 c0 -1.4973 1.1497 -2.6471 2.6471 -2.6471 l6.3636 0 c1.4973 0 2.6471 1.1497 2.6471 2.6471 z"></path></g>
			</g>
		</svg>
	